<?xml version="1.0" encoding="UTF-8"?>
<!DOCTYPE svg PUBLIC "-//W3C//DTD SVG 1.1//EN" "http://www.w3.org/Graphics/SVG/1.1/DTD/svg11.dtd">
<!-- Creator: CorelDRAW 2021 (64-Bit) -->
<svg xmlns="http://www.w3.org/2000/svg" xml:space="preserve" width="308.678mm" height="89.2678mm" version="1.1" shape-rendering="geometricPrecision" text-rendering="geometricPrecision" image-rendering="optimizeQuality" fill-rule="evenodd" clip-rule="evenodd"
viewBox="0 0 10025.93 2899.44"
 xmlns:xlink="http://www.w3.org/1999/xlink"
 xmlns:xodm="http://www.corel.com/coreldraw/odm/2003">
 <g id="Слой_x0020_1">
  <metadata id="CorelCorpID_0Corel-Layer"/>
  <path fill="white" fill-rule="nonzero" d="M9014.93 2738.3l-149 0 0 149 149 0 0 -149zm-8226.62 -1871.88l-788.31 306.17 0 1587.51 788.31 -769.71 0 -1123.97zm1231.12 -78.13l680.33 -664.28 -1710.31 664.28 1029.98 0zm746.06 -596.81l-663.4 679.44 0 1030.47 663.4 -1709.91zm-741.27 1910.6l-1124.27 0 -769.69 788.28 1588.13 0 305.83 -788.28zm770.51 -2102.06l-2794.73 0 0 974.37 2794.73 -974.37zm-879.94 2890.34l975.55 0 0 -2791.5 -975.55 2791.5zm6257.18 -520.54c0,-125.67 120.24,-201.31 278.32,-201.31 143.23,0 228.35,52.69 275.63,121.58l-79.71 74.33c-37.85,-51.34 -110.81,-89.17 -202.66,-89.17 -71.63,0 -151.34,27.02 -151.34,89.17 0,147.27 445.87,55.4 445.87,329.68 0,141.86 -129.72,205.36 -281.04,205.36 -144.57,0 -267.51,-66.2 -317.5,-166.2l90.52 -63.5c41.88,74.31 137.82,122.96 245.91,122.96 81.04,0 143.2,-32.43 143.2,-97.28 0,-166.2 -447.2,-66.21 -447.2,-325.63zm-714.71 -468.84l113.49 0 0 595.84 340.49 -312.1 152.67 0 -337.78 312.1 360.77 390.47 -155.39 0 -305.36 -326.98 -55.4 45.95 0 281.02 -113.49 0 0 -986.31zm-502.59 283.74l113.49 0 0 70.27c24.32,-55.41 90.52,-85.13 144.56,-85.13 67.57,0 112.16,24.32 143.23,63.52l-71.63 78.34c-16.19,-21.62 -40.53,-35.11 -83.76,-35.11 -60.78,0 -116.19,48.62 -132.4,121.58l0 489.12 -113.49 0 0 -702.59zm-532.29 608.01c149.97,0 254.01,-104.05 254.01,-258.05 0,-155.39 -109.44,-259.43 -254.01,-259.43 -144.58,0 -251.32,102.68 -251.32,259.43 0,149.96 104.05,258.05 251.32,258.05zm0 -624.21c221.59,0 374.24,152.65 374.24,366.16 0,212.12 -152.66,364.79 -374.24,364.79 -217.54,0 -371.56,-152.67 -371.56,-364.79 0,-213.51 151.32,-366.16 371.56,-366.16zm-663.35 718.78l-91.88 0 -160.78 -429.66 -36.48 -110.79 -37.85 112.14 -162.13 428.3 -89.17 0 -237.79 -702.59 121.58 0 131.07 399.93 40.53 133.77 39.18 -133.77 149.97 -399.93 89.18 0 152.67 404 44.6 133.74 33.76 -133.74 125.67 -404 116.19 0 -228.34 702.59zm-1818.56 -702.58l145.93 0 0 -179.69 113.49 0 0 179.69 241.84 0 0 99.98 -241.84 0 0 317.51c0,139.16 37.83,186.45 121.59,186.45 48.66,0 89.19,-20.26 127,-49.99l51.36 83.76c-43.24,47.31 -110.8,74.31 -198.62,74.31 -137.81,0 -214.82,-91.86 -214.82,-264.81l0 -347.24 -145.93 0 0 -99.98zm-272.89 -243.21l122.96 0 0 945.8 -122.96 0 0 -945.8zm2015.28 -299.64l1641.82 0 0 -373.85 -1231.81 0 0 -260.15 1231.81 0 0 -373.84 -1231.81 0 0 -260.13 1231.81 0 0 -373.86 -1641.82 0 0 1641.84zm3933.04 -0.01l410.02 0 0 -1641.84 -410.02 0 0 1641.84zm-1966.51 -1267.97l615.92 0 0 1267.98 410 0 0 -1267.98 615.89 0 0 -373.86 -1641.81 0 0 373.86zm-2753.49 609.84l-849.45 -983.7 -382.35 0 0 1641.84 410.03 0 0 -983.68 849.46 983.68 382.35 0 0 -1641.84 -410.03 0 0 983.7z"/>
 </g>
</svg>
