<svg width="159" height="76" viewBox="0 0 159 76" fill="none" xmlns="http://www.w3.org/2000/svg">
<path fill-rule="evenodd" clip-rule="evenodd" d="M34.5355 0.272911C34.4723 0.423054 31.9637 6.67824 28.961 14.1734L23.5014 27.801L15.5056 27.8331L7.50977 27.8651L7.17404 28.7296C6.98941 29.2052 6.38006 30.7426 5.81982 32.1462C5.25969 33.5497 4.80133 34.7194 4.80133 34.7454C4.80133 34.7713 8.37152 34.8063 12.735 34.8232L20.6686 34.8539L19.6874 37.3344L18.7063 39.8148H10.7295H2.7527L2.45201 40.562C2.28662 40.9729 1.66725 42.5194 1.07566 43.9988L0 46.6884L7.94036 46.7191C15.431 46.7481 15.877 46.7616 15.8157 46.9582C15.78 47.0729 15.339 48.1886 14.8356 49.4378L13.9204 51.7091L28.4022 51.7689L42.8838 51.8286L39.6035 53.7646L36.323 55.7004L35.1939 58.5462C34.5729 60.1114 33.863 61.8895 33.6164 62.4979C33.2046 63.5134 33.1886 63.5925 33.4202 63.4654C33.5588 63.3893 54.7549 50.8301 80.5226 35.5562L127.373 7.78531L128.905 3.94196C129.748 1.82813 130.419 0.0792554 130.396 0.0554668C130.373 0.0317978 119.731 6.3054 106.745 13.9969C93.7602 21.6883 83.1141 27.9586 83.0872 27.9309C83.0605 27.903 83.2926 27.4859 83.6031 27.0038C85.938 23.379 88.3233 17.6409 89.2346 13.4562C89.6384 11.6016 89.7443 8.9097 89.4674 7.53893C88.7514 3.99564 86.0064 1.74338 81.1647 0.726806C77.9847 0.0591727 78.9775 0.0861886 55.9441 0.0414805L34.6504 0L34.5355 0.272911ZM75.7972 5.30891C78.1348 5.80333 79.5047 6.40139 80.509 7.36572C82.7414 9.50956 82.7802 12.9418 80.64 19.0148C79.919 21.0607 78.3723 24.2642 77.3213 25.8884C76.8109 26.6774 75.9635 27.807 75.4384 28.3987C72.8458 31.3203 70.0415 33.0281 66.2312 34.0055C63.4678 34.7144 63.4644 34.7146 53.6851 34.7871L44.6542 34.8539L42.2751 40.7982L39.8959 46.7426L30.7733 46.7453L21.6506 46.7482L21.9755 45.9413C22.3314 45.0574 29.8095 26.4064 35.0615 13.3039L38.3809 5.02297L56.5992 5.0623C73.3379 5.09852 74.8971 5.1186 75.7972 5.30891ZM120.458 14.8254C117.605 16.5161 108.996 21.6134 101.326 26.1528C93.6557 30.6921 81.338 37.9823 73.9532 42.3532C66.5683 46.7239 54.4581 53.8901 47.0416 58.2781C39.625 62.6661 33.1234 66.5155 32.5935 66.8325L31.6301 67.4088L30.0891 71.2664C29.2415 73.3881 28.5694 75.146 28.5953 75.173C28.6213 75.1999 31.1746 73.7278 34.2692 71.9017C37.3639 70.0758 41.1406 67.8479 42.662 66.9509C44.1833 66.0539 49.1104 63.1491 53.611 60.4957C58.1116 57.8424 63.0078 54.954 64.4916 54.0774C65.9752 53.2007 67.1992 52.4975 67.2117 52.5147C67.224 52.5318 65.1932 57.6235 62.6988 63.8294C60.2044 70.0354 58.1635 75.1625 58.1635 75.2229C58.1635 75.3904 87.7033 75.2001 87.8084 75.0319C87.8538 74.9594 88.4753 73.4357 89.1893 71.6462C89.9033 69.8565 90.5186 68.431 90.5566 68.4784C90.5947 68.5256 91.0282 69.5864 91.52 70.8356C92.0118 72.0848 92.4342 73.1279 92.4587 73.1537C92.4832 73.1794 93.5929 72.1114 94.9247 70.7802L97.3463 68.36L96.7792 69.777C96.4673 70.5564 95.8514 72.0953 95.4106 73.1965L94.6093 75.1988H109.445H124.28L129.862 61.3022L135.444 47.4057L143.453 47.3749L151.461 47.3442L152.815 43.9585C153.56 42.0963 154.169 40.5366 154.169 40.4926C154.169 40.4485 150.591 40.4125 146.217 40.4125C141.843 40.4125 138.264 40.392 138.264 40.367C138.264 40.3419 138.684 39.2795 139.197 38.0061C139.71 36.7326 140.156 35.6239 140.189 35.5421C140.235 35.426 142.004 35.3867 148.259 35.3628L156.27 35.3321L157.635 31.9252L159 28.5183L151.053 28.4876C146.681 28.4707 143.105 28.4136 143.105 28.3607C143.105 28.2842 143.723 26.6941 144.914 23.7068C144.962 23.5877 142.077 23.5573 130.713 23.5573H116.453L112.583 27.5208C110.455 29.7006 108.699 31.4355 108.68 31.376C108.52 30.8658 108.111 28.1372 108.183 28.0583C108.233 28.0026 111.508 26.0655 115.459 23.7538L122.643 19.5506L124.176 15.7361C125.018 13.6381 125.694 11.8834 125.676 11.8365C125.659 11.7897 123.31 13.1347 120.458 14.8254ZM51.0104 19.8217C50.1717 22.4352 49.4611 24.6425 49.4311 24.7269C49.3871 24.8509 50.5473 24.8738 55.47 24.8465L61.5635 24.8125L62.255 24.3996C63.6003 23.5964 64.7576 22.1047 65.4224 20.3167C66.126 18.4244 66.1351 16.796 65.4474 15.8689C64.8383 15.0476 65.034 15.07 58.4573 15.07H52.5353L51.0104 19.8217ZM137.227 28.5662C137.227 28.6254 136.894 29.4996 136.488 30.5087C136.082 31.5179 134.068 36.5394 132.013 41.6677C129.958 46.796 126.548 55.3021 124.436 60.5702L120.596 70.1483L111.157 70.2374C105.966 70.2863 101.693 70.2997 101.661 70.2669C101.63 70.2343 102.851 66.9339 104.376 62.9326C105.9 58.9314 107.134 55.623 107.118 55.5805C107.102 55.5381 104.32 57.9217 100.937 60.8777C97.554 63.8336 94.7452 66.2074 94.6953 66.153C94.6452 66.0985 93.6344 63.7139 92.4487 60.8539C91.2631 57.9939 90.2564 55.6125 90.2114 55.5618C90.1666 55.5111 88.758 58.7925 87.0812 62.8537L84.0325 70.2379L74.959 70.2685C69.9685 70.2853 65.8855 70.2575 65.8855 70.2067C65.8855 70.1557 66.6814 68.1247 67.6544 65.6933C68.6272 63.2617 70.5515 58.4482 71.9305 54.9965C73.3096 51.5447 74.5287 48.5054 74.6398 48.2424C74.8342 47.7823 75.0834 47.6218 81.2262 43.9997C84.7376 41.9293 90.6378 38.4461 94.3377 36.2595C98.0376 34.0728 101.106 32.2838 101.157 32.2838C101.267 32.2838 101.222 32.0591 102.49 38.8585C103.048 41.85 103.518 44.3183 103.535 44.3436C103.552 44.3689 107.048 40.8051 111.305 36.4241L119.043 28.4585H128.135C133.451 28.4585 137.227 28.5032 137.227 28.5662ZM65.1939 38.6674C65.1939 38.7396 65.0893 38.8019 54.2061 45.2132C44.4314 50.9714 43.2643 51.6493 43.1256 51.6493C43.0904 51.6493 43.1835 51.3939 43.3325 51.0815C43.4816 50.7692 44.6284 48.0069 45.881 44.9431L48.1584 39.3724L54.227 39.3007C60.0299 39.2322 61.9189 39.1356 63.9766 38.8022C65.1309 38.6152 65.1939 38.6082 65.1939 38.6674Z" fill="white"/>
</svg>
